<?xml version="1.0" ?><svg xmlns="http://www.w3.org/2000/svg" xmlns:xlink="http://www.w3.org/1999/xlink" version="1.1" viewBox="0 0 510 510" style="enable-background:new 0 0 510 510;" xml:space="preserve"><g id="_x30_2_x2C__calendar_x2C__schedule_x2C__time_and_date_x2C__time_x2C__date_x2C__CALENDARS"><g><g><g id="XMLID_17_"><g id="XMLID_28_"><path id="XMLID_50_" style="fill:#5596FB;" d="M127.174,202.391H63.261c-5.522,0-10,4.477-10,10v63.914c0,5.522,4.478,10,10,10       h63.913c5.523,0,10-4.478,10-10v-63.914C137.174,206.868,132.696,202.391,127.174,202.391z M117.174,266.305H73.261v-43.914       h43.913V266.305z"/><path id="XMLID_47_" style="fill:#5596FB;" d="M233.695,202.391h-63.913c-5.522,0-10,4.477-10,10v63.914       c0,5.522,4.478,10,10,10h63.913c5.523,0,10-4.478,10-10v-63.914C243.695,206.868,239.218,202.391,233.695,202.391z        M223.695,266.305h-43.913v-43.914h43.913V266.305z"/><path id="XMLID_44_" style="fill:#5596FB;" d="M340.218,202.391h-63.913c-5.522,0-10,4.477-10,10v63.914       c0,5.522,4.478,10,10,10h63.913c5.522,0,10-4.478,10-10v-63.914C350.218,206.868,345.74,202.391,340.218,202.391z        M330.218,266.305h-43.913v-43.914h43.913V266.305z"/><path id="XMLID_41_" style="fill:#5596FB;" d="M446.739,202.391h-63.913c-5.522,0-10,4.477-10,10v63.914       c0,5.522,4.478,10,10,10h63.913c5.522,0,10-4.478,10-10v-63.914C456.739,206.868,452.262,202.391,446.739,202.391z        M436.739,266.305h-43.913v-43.914h43.913V266.305z"/><path id="XMLID_38_" style="fill:#5596FB;" d="M127.174,319.565H63.261c-5.522,0-10,4.478-10,10v63.913c0,5.523,4.478,10,10,10       h63.913c5.523,0,10-4.477,10-10v-63.913C137.174,324.043,132.696,319.565,127.174,319.565z M117.174,383.478H73.261v-43.913       h43.913V383.478z"/><path id="XMLID_35_" style="fill:#5596FB;" d="M233.695,319.565h-63.913c-5.522,0-10,4.478-10,10v63.913       c0,5.523,4.478,10,10,10h63.913c5.523,0,10-4.477,10-10v-63.913C243.695,324.043,239.218,319.565,233.695,319.565z        M223.695,383.478h-43.913v-43.913h43.913V383.478z"/><path id="XMLID_32_" style="fill:#5596FB;" d="M340.218,319.565h-63.913c-5.522,0-10,4.478-10,10v63.913       c0,5.523,4.478,10,10,10h63.913c5.522,0,10-4.477,10-10v-63.913C350.218,324.043,345.74,319.565,340.218,319.565z        M330.218,383.478h-43.913v-43.913h43.913V383.478z"/><path id="XMLID_29_" style="fill:#5596FB;" d="M446.739,319.565h-63.913c-5.522,0-10,4.478-10,10v63.913       c0,5.523,4.478,10,10,10h63.913c5.522,0,10-4.477,10-10v-63.913C456.739,324.043,452.262,319.565,446.739,319.565z        M436.739,383.478h-43.913v-43.913h43.913V383.478z"/></g><g id="XMLID_18_"><path id="XMLID_19_" style="fill:#283954;" d="M460,42.609h-13.913V31.304C446.087,14.043,432.044,0,414.782,0       c-17.261,0-31.304,14.043-31.304,31.304v11.305h-43.913V31.304C339.565,14.043,325.522,0,308.261,0       c-17.262,0-31.305,14.043-31.305,31.304v11.305h-43.912V31.304C233.044,14.043,219.001,0,201.739,0       c-17.262,0-31.305,14.043-31.305,31.304v11.305h-43.913V31.304C126.521,14.043,112.479,0,95.218,0       C77.956,0,63.913,14.043,63.913,31.304v11.305H50c-27.57,0-50,22.43-50,50c0,19.024,0,343.157,0,364.783       C0,486.4,23.6,510,52.608,510h404.783C486.4,510,510,486.4,510,457.392c-1.276-328.272,0-364.61,0-364.783       C510,65.039,487.57,42.609,460,42.609z M20,169.13h470v237.609c0,16.542-13.458,30-30,30H50c-16.542,0-30-13.458-30-30V169.13z        M403.478,31.304c0-6.233,5.071-11.304,11.304-11.304c6.233,0,11.305,5.071,11.305,11.304v11.305h-22.608V31.304z        M296.956,31.304c0-6.233,5.071-11.304,11.305-11.304s11.305,5.071,11.305,11.304v11.305h-22.609V31.304z M190.435,31.304       c0-6.233,5.071-11.304,11.305-11.304s11.305,5.071,11.305,11.304v11.305h-22.609V31.304z M83.913,31.304       C83.913,25.071,88.984,20,95.218,20c6.232,0,11.304,5.071,11.304,11.304v11.305H83.913V31.304z M50,62.609h13.913v32.608       c0,17.261,14.043,31.304,31.305,31.304c5.522,0,10-4.477,10-10c0-5.523-4.478-10-10-10c-6.233,0-11.305-5.071-11.305-11.304       V62.609h86.521v32.608c0,17.261,14.043,31.304,31.305,31.304c5.522,0,10-4.477,10-10c0-5.523-4.478-10-10-10       c-6.233,0-11.305-5.071-11.305-11.304V62.609h86.521v32.608c0,17.261,14.043,31.304,31.305,31.304c5.522,0,10-4.477,10-10       c0-5.523-4.478-10-10-10c-6.233,0-11.305-5.071-11.305-11.304V62.609h86.522v32.608c0,17.261,14.043,31.304,31.304,31.304       c5.522,0,10-4.477,10-10c0-5.523-4.478-10-10-10c-6.232,0-11.304-5.071-11.304-11.304V62.609H460c16.542,0,30,13.458,30,30       v56.521H20V92.609C20,76.067,33.458,62.609,50,62.609z M457.392,490H52.608C34.628,490,20,475.372,20,457.392v-10.68       c8.362,6.292,18.753,10.027,30,10.027h410c11.247,0,21.638-3.735,30-10.027v10.68C490,475.372,475.372,490,457.392,490z"/></g></g></g></g></g><g id="Layer_1"/></svg>